<svg width="1000" height="500" viewBox="0 0 1000 500" fill="none" xmlns="http://www.w3.org/2000/svg">
<path d="M42.4035 34.4986C42.1398 33.5146 41.3657 32.7413 40.3807 32.4779C38.5952 32 31.44 32 31.44 32C31.44 32 24.2848 32 22.5012 32.4779C21.5162 32.7413 20.7421 33.5146 20.4784 34.4986C20 36.2803 20 40 20 40C20 40 20 43.7197 20.4784 45.5014C20.7421 46.4854 21.5162 47.2587 22.5012 47.5221C24.2848 48 31.44 48 31.44 48C31.44 48 38.5952 48 40.3788 47.5221C41.3638 47.2587 42.1379 46.4854 42.4016 45.5014C42.88 43.7197 42.88 40 42.88 40C42.88 40 42.88 36.2803 42.4016 34.4986H42.4035ZM29.1516 43.428V36.572L35.0958 40L29.1516 43.428Z" fill="white"/>
<path d="M112.56 33.8938C111.836 34.2147 111.058 34.4322 110.241 34.5297C111.074 34.0297 111.715 33.2383 112.016 32.2953C111.236 32.7579 110.372 33.0946 109.452 33.2757C108.716 32.4912 107.666 32 106.505 32C104.276 32 102.468 33.8082 102.468 36.0386C102.468 36.3556 102.504 36.6637 102.572 36.959C99.2183 36.7906 96.243 35.1833 94.2516 32.7392C93.9042 33.3357 93.7045 34.0297 93.7045 34.7699C93.7045 36.1715 94.4169 37.4068 95.5001 38.1313C94.838 38.1106 94.2161 37.9285 93.6711 37.6263C93.6711 37.6431 93.6711 37.6598 93.6711 37.6775C93.6711 39.6343 95.0623 41.2663 96.9091 41.6374C96.5706 41.7299 96.2135 41.7791 95.8455 41.7791C95.5857 41.7791 95.3329 41.7536 95.0859 41.7063C95.5995 43.3107 97.0911 44.4781 98.8572 44.5116C97.4758 45.5953 95.7343 46.241 93.8432 46.241C93.5176 46.241 93.1958 46.2223 92.88 46.1849C94.6668 47.3307 96.789 48 99.0687 48C106.494 48 110.556 41.8461 110.556 36.5082C110.556 36.3329 110.552 36.1587 110.544 35.9855C111.333 35.4156 112.017 34.7049 112.558 33.8948L112.56 33.8938Z" fill="white"/>
<path d="M170.448 40.8447L170.892 38.0621H168.279V36.1242C168.279 35.3292 168.575 34.7329 169.758 34.7329H171.04V32.1988C170.35 32.0994 169.561 32 168.871 32C166.603 32 165.025 33.3913 165.025 35.8758V38.0621H162.56V40.8447H165.025V47.8509C165.567 47.9503 166.11 48 166.652 48C167.194 48 167.737 47.9503 168.279 47.8509V40.8447H170.448Z" fill="white"/>
<path fill-rule="evenodd" clip-rule="evenodd" d="M221.04 34.1387L235.14 25L249.24 34.1387V37.5234H244.144V35.4926L244.144 35.4926L235.14 29.4001L226.136 35.4926L230.553 35.4926H226.136V37.5234H221.04V34.1387ZM230.553 35.4926V34.4771H239.727V35.4926V38.2003H230.553V35.4926ZM226.136 37.5234V44.6312H244.144V37.5234L247.201 37.5234V48.3544H223.079V37.5234L226.136 37.5234ZM230.553 39.2157H239.727V42.9389H230.553V39.2157ZM245.328 50.4137C245.328 51.0528 245.685 51.4576 246.216 51.4576C246.686 51.4576 247.032 51.1626 247.032 50.6421V50.3761H246.303V50.7549H246.625C246.602 50.9313 246.506 51.0614 246.228 51.0614C245.923 51.0614 245.746 50.7867 245.746 50.4137C245.746 50.0378 245.92 49.7718 246.225 49.7718C246.445 49.7718 246.538 49.8845 246.614 50.0349L247 49.8759C246.866 49.5636 246.646 49.3698 246.23 49.3698C245.699 49.3698 245.328 49.7978 245.328 50.4137ZM244.912 51.4258H244.55L243.804 50.3212L243.798 50.3125C243.749 50.2383 243.686 50.1428 243.661 50.0927C243.661 50.1264 243.663 50.1962 243.664 50.2731L243.664 50.2734V50.2735V50.2736L243.664 50.2741L243.664 50.2745L243.664 50.275C243.665 50.369 243.667 50.4734 243.667 50.5351V51.4258H243.267V49.4016H243.656L244.375 50.4715L244.381 50.4802L244.381 50.4803L244.381 50.4804L244.381 50.4806L244.381 50.4807L244.382 50.4808C244.43 50.5549 244.493 50.65 244.518 50.7C244.518 50.6662 244.516 50.5963 244.515 50.5193V50.5192V50.5191C244.514 50.4247 244.512 50.3196 244.512 50.2575V49.4016H244.912V51.4258ZM242.309 51.4258H242.716V49.4016H242.309V51.4258ZM241.85 50.8127C241.85 51.1973 241.606 51.4576 241.052 51.4576C240.712 51.4576 240.416 51.3159 240.262 51.0903L240.556 50.8301C240.698 50.9949 240.881 51.0614 241.075 51.0614C241.316 51.0614 241.429 50.9949 241.429 50.8417C241.429 50.7115 241.36 50.6537 240.976 50.567C240.602 50.4802 240.341 50.3616 240.341 49.9626C240.341 49.5954 240.666 49.3698 241.066 49.3698C241.383 49.3698 241.615 49.4884 241.807 49.6879L241.513 49.9713C241.383 49.8383 241.238 49.7631 241.052 49.7631C240.834 49.7631 240.762 49.8556 240.762 49.9453C240.762 50.0725 240.849 50.113 241.171 50.1882C241.493 50.2633 241.85 50.3732 241.85 50.8127ZM239.028 51.4576C239.545 51.4576 239.852 51.1193 239.852 50.5323V49.4016H239.446V50.538C239.446 50.8619 239.286 51.0614 239.028 51.0614C238.77 51.0614 238.613 50.8561 238.613 50.5323V49.4016H238.206V50.538C238.206 51.1279 238.537 51.4576 239.028 51.4576ZM237.812 50.4108C237.812 51.0643 237.444 51.4576 236.915 51.4576C236.384 51.4576 236.021 51.0701 236.021 50.4166C236.021 49.7631 236.39 49.3698 236.921 49.3698C237.45 49.3698 237.812 49.7573 237.812 50.4108ZM237.394 50.4166C237.394 50.006 237.197 49.7718 236.913 49.7718C236.628 49.7718 236.439 50.0002 236.439 50.4108C236.439 50.8214 236.637 51.0556 236.921 51.0556C237.206 51.0556 237.394 50.8272 237.394 50.4166ZM235.206 51.4258H235.612V49.4016H235.206V50.1766H234.373V49.4016H233.966V51.4258H234.373V50.5756H235.206V51.4258ZM232.75 51.4258H231.324V49.4016H231.731V51.0267H232.75V51.4258ZM230.5 51.4258H230.947L230.175 49.4016H229.78L229.002 51.4258H229.438L229.597 50.9747H230.34L230.5 51.4258ZM230.07 50.2228L230.201 50.5901H229.737L229.867 50.2228C229.908 50.1043 229.948 49.9828 229.969 49.9077C229.989 49.9828 230.03 50.1043 230.07 50.2228ZM228.741 50.5323C228.741 51.1193 228.433 51.4576 227.916 51.4576C227.426 51.4576 227.095 51.1279 227.095 50.538V49.4016H227.501V50.5323C227.501 50.8561 227.658 51.0614 227.916 51.0614C228.175 51.0614 228.334 50.8619 228.334 50.538V49.4016H228.741V50.5323ZM226.419 51.1916C226.596 51.0094 226.695 50.7607 226.695 50.4137C226.695 49.7978 226.367 49.3698 225.812 49.3698C225.258 49.3698 224.93 49.7978 224.93 50.4137C224.93 51.0296 225.258 51.4576 225.812 51.4576C225.925 51.4576 226.021 51.4402 226.114 51.4026L226.259 51.6137L226.57 51.4113L226.419 51.1916ZM225.812 49.7718C226.14 49.7718 226.277 50.0522 226.277 50.4137C226.277 50.5843 226.256 50.7462 226.192 50.859L226.062 50.6653L225.751 50.8677L225.888 51.0701C225.867 51.073 225.844 51.0759 225.821 51.0759C225.493 51.0759 225.348 50.7838 225.348 50.4137C225.348 50.0522 225.484 49.7718 225.812 49.7718ZM224.703 51.4258H223.248V49.4016H224.659V49.7978H223.655V50.1477H224.238V50.5409H223.655V51.0296H224.703V51.4258ZM246.158 54.0543L247.032 52.6653H246.507L246.181 53.2104C246.095 53.3549 245.973 53.5749 245.931 53.6602C245.888 53.5749 245.763 53.3483 245.68 53.2104L245.354 52.6653H244.823L245.697 54.0641V54.9639H246.158V54.0543ZM244.603 53.1184H243.94V54.9639H243.479V53.1184H242.816V52.6653H244.603V53.1184ZM241.877 54.9639H242.339V52.6653H241.877V54.9639ZM241.251 54.9639H240.839L239.992 53.7095L239.985 53.6997L239.985 53.6996L239.985 53.6995C239.93 53.6154 239.859 53.5069 239.83 53.4501C239.83 53.4885 239.831 53.568 239.833 53.6555L239.833 53.6562L239.833 53.6566C239.835 53.7635 239.837 53.8822 239.837 53.9525V54.9639H239.382V52.6653H239.823L240.641 53.8803L240.647 53.8901L240.647 53.8901L240.648 53.8902C240.703 53.9744 240.774 54.0828 240.802 54.1397C240.802 54.1013 240.801 54.0218 240.8 53.9342L240.8 53.9336L240.8 53.9331C240.798 53.8262 240.796 53.7075 240.796 53.6373V52.6653H241.251V54.9639ZM237.868 55C238.455 55 238.804 54.6158 238.804 53.9492V52.6653H238.342V53.9558C238.342 54.3236 238.161 54.5501 237.868 54.5501C237.574 54.5501 237.396 54.317 237.396 53.9492V52.6653H236.935V53.9558C236.935 54.6257 237.311 55 237.868 55ZM236.507 53.1184H235.844V54.9639H235.383V53.1184H234.72V52.6653H236.507V53.1184ZM233.934 54.9639H234.465L234.023 54.0707C234.317 53.9558 234.465 53.739 234.465 53.3943C234.465 52.905 234.106 52.6653 233.671 52.6653H232.596V54.9639H233.058V54.1364H233.522L233.934 54.9639ZM233.661 53.1119C233.865 53.1119 233.991 53.1972 233.991 53.4041C233.991 53.6044 233.875 53.7029 233.661 53.7029H233.058V53.1119H233.661ZM232.132 53.8113C232.132 54.5534 231.714 55 231.114 55C230.51 55 230.098 54.56 230.098 53.8179C230.098 53.0757 230.517 52.6291 231.12 52.6291C231.72 52.6291 232.132 53.0692 232.132 53.8113ZM231.658 53.8179C231.658 53.3516 231.433 53.0856 231.11 53.0856C230.787 53.0856 230.573 53.345 230.573 53.8113C230.573 54.2776 230.797 54.5436 231.12 54.5436C231.443 54.5436 231.658 54.2841 231.658 53.8179ZM228.956 54.1495C229.434 54.1495 229.79 53.9262 229.79 53.3943C229.79 52.905 229.43 52.6653 228.995 52.6653H227.987V54.9639H228.448V54.1495H228.956ZM228.979 53.1119C229.183 53.1119 229.315 53.2038 229.315 53.4041C229.315 53.6044 229.2 53.7029 228.985 53.7029H228.448V53.1119H228.979ZM227.549 53.3943C227.549 53.9262 227.193 54.1495 226.715 54.1495H226.208V54.9639H225.746V52.6653H226.755C227.19 52.6653 227.549 52.905 227.549 53.3943ZM227.075 53.4041C227.075 53.2038 226.943 53.1119 226.738 53.1119H226.208V53.7029H226.745C226.959 53.7029 227.075 53.6044 227.075 53.4041ZM224.264 55C224.864 55 225.282 54.5534 225.282 53.8113C225.282 53.0692 224.87 52.6291 224.27 52.6291C223.667 52.6291 223.248 53.0757 223.248 53.8179C223.248 54.56 223.66 55 224.264 55ZM224.26 53.0856C224.583 53.0856 224.808 53.3516 224.808 53.8179C224.808 54.2841 224.593 54.5436 224.27 54.5436C223.947 54.5436 223.723 54.2776 223.723 53.8113C223.723 53.345 223.937 53.0856 224.26 53.0856Z" fill="white"/>
<path d="M409.316 20.0001H308.77C308.403 20.0001 308.041 20.0001 307.675 20.0021C307.369 20.0041 307.066 20.0099 306.757 20.0148C306.086 20.0227 305.416 20.0818 304.754 20.1915C304.093 20.3037 303.452 20.515 302.854 20.8185C302.257 21.1246 301.711 21.5223 301.236 21.9972C300.759 22.4708 300.362 23.0181 300.059 23.6183C299.755 24.2172 299.544 24.8591 299.434 25.5216C299.323 26.1833 299.263 26.8526 299.255 27.5236C299.246 27.8302 299.245 28.1378 299.24 28.4444V51.5586C299.245 51.8691 299.246 52.1699 299.255 52.4805C299.263 53.1514 299.323 53.8207 299.434 54.4824C299.544 55.1453 299.755 55.7875 300.059 56.3867C300.362 56.9849 300.759 57.5301 301.236 58.001C301.709 58.478 302.255 58.876 302.854 59.1797C303.452 59.484 304.093 59.6967 304.754 59.8105C305.416 59.9194 306.086 59.9785 306.757 59.9873C307.066 59.9941 307.369 59.998 307.675 59.998C308.041 60 308.403 60 308.77 60H409.316C409.675 60 410.04 60 410.399 59.998C410.704 59.998 411.016 59.9941 411.321 59.9873C411.99 59.9789 412.659 59.9198 413.32 59.8105C413.983 59.6958 414.626 59.4833 415.227 59.1797C415.825 58.8758 416.371 58.4779 416.843 58.001C417.319 57.5282 417.717 56.9835 418.024 56.3867C418.326 55.7871 418.534 55.145 418.643 54.4824C418.754 53.8207 418.816 53.1515 418.828 52.4805C418.832 52.1699 418.832 51.8691 418.832 51.5586C418.84 51.1953 418.84 50.834 418.84 50.4648V29.5362C418.84 29.17 418.84 28.8067 418.832 28.4444C418.832 28.1378 418.832 27.8302 418.828 27.5235C418.816 26.8525 418.754 26.1833 418.643 25.5216C418.534 24.8594 418.326 24.2176 418.024 23.6182C417.407 22.4153 416.429 21.4362 415.227 20.8184C414.626 20.5157 413.983 20.3044 413.32 20.1914C412.659 20.0812 411.99 20.0221 411.321 20.0147C411.016 20.0098 410.704 20.0039 410.399 20.002C410.04 20 409.675 20.0001 409.316 20.0001Z" fill="#A6A6A6"/>
<path d="M307.68 59.1249C307.376 59.1249 307.079 59.121 306.776 59.1142C306.151 59.106 305.526 59.0515 304.908 58.9511C304.332 58.8518 303.774 58.6671 303.252 58.4032C302.736 58.1414 302.264 57.7981 301.856 57.3866C301.442 56.9799 301.098 56.5081 300.836 55.9901C300.572 55.4687 300.389 54.9098 300.294 54.3329C300.191 53.713 300.135 53.0862 300.127 52.4579C300.121 52.247 300.113 51.5448 300.113 51.5448V28.4443C300.113 28.4443 300.121 27.7529 300.127 27.5498C300.135 26.9225 300.19 26.2966 300.293 25.6777C300.388 25.0992 300.571 24.5387 300.836 24.0156C301.096 23.4979 301.439 23.0258 301.85 22.6177C302.261 22.2056 302.734 21.8606 303.252 21.5952C303.772 21.3321 304.329 21.1487 304.904 21.0513C305.524 20.9498 306.151 20.895 306.779 20.8872L307.681 20.875H410.394L411.307 20.8877C411.929 20.8951 412.55 20.9494 413.164 21.0503C413.745 21.149 414.308 21.3336 414.834 21.5981C415.872 22.133 416.716 22.9792 417.248 24.0181C417.508 24.5376 417.689 25.0935 417.783 25.667C417.887 26.291 417.945 26.9217 417.957 27.5542C417.96 27.8374 417.96 28.1416 417.96 28.4443C417.967 28.8193 417.967 29.1762 417.967 29.5361V50.4647C417.967 50.828 417.967 51.1825 417.96 51.5399C417.96 51.8651 417.96 52.163 417.956 52.4696C417.944 53.0908 417.887 53.7103 417.785 54.3231C417.692 54.9041 417.51 55.4674 417.245 55.9931C416.982 56.5055 416.639 56.9731 416.23 57.3788C415.822 57.7926 415.35 58.1378 414.831 58.4013C414.306 58.6673 413.744 58.8526 413.164 58.9511C412.547 59.052 411.922 59.1066 411.296 59.1142C411.003 59.121 410.697 59.1249 410.399 59.1249L409.316 59.1269L307.68 59.1249Z" fill="black"/>
<path fill-rule="evenodd" clip-rule="evenodd" d="M358.302 28.437H359.19V34.6977H358.302V28.437ZM337.046 28.731C337.435 28.703 337.826 28.7619 338.19 28.9033C338.554 29.0448 338.882 29.2652 339.15 29.5489C339.419 29.8325 339.621 30.1722 339.742 30.5434C339.864 30.9147 339.901 31.3083 339.852 31.6958C339.852 33.6021 338.822 34.6978 337.046 34.6978H334.892V28.731H337.046ZM335.818 33.854H336.942C337.221 33.8706 337.499 33.825 337.758 33.7203C338.016 33.6157 338.248 33.4548 338.436 33.2492C338.625 33.0437 338.765 32.7986 338.847 32.532C338.928 32.2654 338.95 31.9839 338.909 31.708C338.947 31.4331 338.923 31.1534 338.84 30.8887C338.757 30.624 338.617 30.381 338.429 30.1771C338.241 29.9732 338.01 29.8134 337.753 29.7091C337.496 29.6049 337.219 29.5588 336.942 29.5742H335.818V33.854ZM373.879 49.076C372.245 49.076 371.05 48.2675 370.912 47.036L369.011 47.0359C369.131 49.282 370.989 50.7029 373.742 50.7029C376.683 50.7029 378.533 49.2479 378.533 46.9246C378.533 45.1083 377.475 44.0848 374.928 43.4823L373.561 43.1463C371.961 42.7508 371.307 42.2343 371.307 41.3563C371.307 40.2548 372.331 39.4979 373.827 39.4979C375.324 39.4979 376.348 40.246 376.46 41.4852H378.335C378.274 39.3427 376.476 37.871 373.854 37.871C371.204 37.871 369.338 39.3427 369.338 41.4852C369.338 43.2157 370.396 44.2821 372.675 44.8329L374.283 45.2206C375.892 45.6161 376.571 46.1932 376.571 47.1571C376.571 48.2674 375.445 49.076 373.879 49.076ZM336.789 47.1396H341.52L342.655 50.496H344.693L340.212 38.0781H338.13L333.649 50.496H335.653L336.789 47.1396ZM341.029 45.5908H337.279L339.128 40.1435H339.18L341.029 45.5908ZM350.594 50.5907C352.865 50.5907 354.37 48.7831 354.37 45.9697C354.37 43.164 352.856 41.3476 350.56 41.3476C349.98 41.3289 349.405 41.4678 348.898 41.7497C348.391 42.0315 347.969 42.4457 347.678 42.9482H347.644V41.4423H345.846V53.4911H347.704V49.0068H347.747C348.025 49.5116 348.439 49.928 348.943 50.2081C349.446 50.4883 350.019 50.6209 350.594 50.5907ZM350.07 42.9316C351.514 42.9316 352.461 44.1367 352.461 45.9697C352.461 47.8193 351.514 49.0156 350.07 49.0156C348.651 49.0156 347.696 47.7939 347.696 45.9697C347.696 44.1621 348.651 42.9316 350.07 42.9316ZM364.33 45.9697C364.33 48.7831 362.825 50.5907 360.553 50.5907C359.978 50.6209 359.406 50.4882 358.902 50.2081C358.399 49.928 357.984 49.5116 357.706 49.0067H357.663V53.4911H355.806V41.4423H357.604V42.9482H357.638C357.929 42.4457 358.35 42.0315 358.858 41.7497C359.365 41.4678 359.939 41.3289 360.519 41.3476C362.816 41.3476 364.33 43.164 364.33 45.9697ZM362.42 45.9697C362.42 44.1367 361.474 42.9316 360.029 42.9316C358.61 42.9316 357.655 44.162 357.655 45.9697C357.655 47.7939 358.61 49.0156 360.029 49.0156C361.474 49.0156 362.42 47.8193 362.42 45.9697ZM382.542 39.2997V41.4423H384.262V42.914H382.542V47.9052C382.542 48.6806 382.886 49.0419 383.643 49.0419C383.847 49.0383 384.051 49.024 384.254 48.9989V50.4618C383.913 50.5254 383.568 50.5542 383.222 50.5477C381.39 50.5477 380.675 49.8592 380.675 48.1034V42.914H379.36V41.4423H380.675V39.2997H382.542ZM389.551 41.331C386.936 41.331 385.259 43.121 385.259 45.9696C385.259 48.8261 386.919 50.6083 389.551 50.6083C392.183 50.6083 393.843 48.8261 393.843 45.9696C393.843 43.121 392.174 41.331 389.551 41.331ZM389.551 42.8622C391.056 42.8622 391.951 44.0155 391.951 45.9696C391.951 47.9315 391.056 49.0761 389.551 49.0761C388.045 49.0761 387.151 47.9315 387.151 45.9696C387.151 44.0243 388.045 42.8622 389.551 42.8622ZM395.375 41.4423H397.146V42.9833H397.189C397.309 42.502 397.591 42.0767 397.987 41.7788C398.383 41.4809 398.87 41.3286 399.366 41.3476C399.58 41.3468 399.793 41.3701 400.002 41.4169V43.1552C399.732 43.0726 399.45 43.0346 399.167 43.0429C398.898 43.0319 398.629 43.0795 398.379 43.1824C398.129 43.2853 397.905 43.441 397.721 43.6389C397.537 43.8368 397.398 44.0722 397.314 44.3289C397.229 44.5855 397.201 44.8574 397.232 45.1259V50.496H395.375L395.375 41.4423ZM404.669 50.6083C406.716 50.6083 408.316 49.4804 408.566 47.8368L406.802 47.8368C406.637 48.2459 406.345 48.5908 405.968 48.8202C405.592 49.0497 405.151 49.1514 404.712 49.1103C404.378 49.1226 404.045 49.0636 403.736 48.9373C403.426 48.811 403.147 48.6202 402.917 48.3777C402.687 48.1351 402.51 47.8464 402.4 47.5305C402.29 47.2147 402.249 46.879 402.278 46.5458V46.4335H408.669V45.7968C408.669 43.0517 407.095 41.331 404.591 41.331C402.046 41.331 400.403 43.1728 400.403 46.0126C400.403 48.8437 402.037 50.6083 404.669 50.6083ZM406.811 45.1347H402.287C402.286 44.832 402.345 44.5323 402.461 44.2526C402.576 43.973 402.746 43.719 402.961 43.5054C403.175 43.2917 403.429 43.1227 403.709 43.0079C403.989 42.8932 404.289 42.835 404.591 42.8368C404.891 42.8304 405.189 42.886 405.466 43.0002C405.744 43.1145 405.994 43.2848 406.203 43.5006C406.411 43.7163 406.573 43.9729 406.677 44.2541C406.782 44.5353 406.827 44.8351 406.811 45.1347ZM340.998 31.5678C340.904 31.8498 340.87 32.1484 340.898 32.4443C340.869 32.7405 340.903 33.0395 340.996 33.322C341.09 33.6046 341.242 33.8644 341.441 34.0848C341.641 34.3052 341.885 34.4813 342.157 34.6019C342.429 34.7224 342.723 34.7847 343.021 34.7847C343.318 34.7847 343.612 34.7224 343.884 34.6019C344.156 34.4813 344.4 34.3052 344.6 34.0848C344.8 33.8644 344.951 33.6046 345.045 33.322C345.139 33.0395 345.172 32.7405 345.143 32.4443C345.171 32.1484 345.138 31.8498 345.044 31.5678C344.95 31.2857 344.798 31.0263 344.598 30.8064C344.399 30.5864 344.155 30.4106 343.883 30.2903C343.612 30.1701 343.318 30.1079 343.021 30.1079C342.724 30.1079 342.43 30.1701 342.158 30.2903C341.886 30.4106 341.643 30.5864 341.443 30.8064C341.243 31.0263 341.091 31.2857 340.998 31.5678ZM343.022 30.8974C343.791 30.8974 344.23 31.4682 344.23 32.4443C344.23 33.4243 343.791 33.9946 343.022 33.9946C342.25 33.9946 341.816 33.4282 341.816 32.4443C341.816 31.4682 342.25 30.8974 343.022 30.8974ZM350.786 34.6977H349.864L348.934 31.3813H348.864L347.938 34.6977H347.025L345.784 30.1948H346.685L347.491 33.6308H347.558L348.483 30.1948H349.335L350.261 33.6308H350.331L351.133 30.1948H352.021L350.786 34.6977ZM353.92 30.1948H353.065L353.065 34.6977H353.953V32.0634C353.937 31.9153 353.954 31.7656 354.001 31.6245C354.049 31.4833 354.126 31.3542 354.228 31.2458C354.33 31.1374 354.454 31.0524 354.592 30.9965C354.73 30.9407 354.879 30.9154 355.027 30.9223C355.684 30.9223 355.999 31.2822 355.999 32.0058V34.6976H356.887V31.7826C356.919 31.5653 356.902 31.3435 356.837 31.1337C356.771 30.9239 356.66 30.7314 356.51 30.5706C356.361 30.4097 356.177 30.2846 355.972 30.2045C355.768 30.1244 355.548 30.0914 355.329 30.1079C355.05 30.0851 354.77 30.1502 354.529 30.294C354.289 30.4378 354.099 30.6532 353.986 30.9101H353.92V30.1948ZM360.524 31.5677C360.431 31.8498 360.397 32.1484 360.425 32.4443C360.396 32.7405 360.43 33.0395 360.523 33.322C360.617 33.6046 360.768 33.8644 360.968 34.0848C361.168 34.3052 361.412 34.4813 361.684 34.6018C361.956 34.7224 362.25 34.7846 362.548 34.7846C362.845 34.7846 363.139 34.7224 363.411 34.6018C363.683 34.4813 363.927 34.3052 364.127 34.0848C364.327 33.8644 364.478 33.6046 364.572 33.322C364.666 33.0395 364.699 32.7405 364.67 32.4443C364.699 32.1484 364.665 31.8498 364.571 31.5677C364.477 31.2856 364.325 31.0263 364.126 30.8063C363.926 30.5863 363.682 30.4105 363.41 30.2903C363.139 30.17 362.845 30.1078 362.548 30.1078C362.251 30.1078 361.957 30.17 361.685 30.2903C361.413 30.4105 361.17 30.5863 360.97 30.8063C360.77 31.0263 360.618 31.2856 360.524 31.5677ZM362.549 30.8974C363.318 30.8974 363.756 31.4682 363.756 32.4443C363.756 33.4243 363.318 33.9946 362.549 33.9946C361.777 33.9946 361.343 33.4282 361.343 32.4443C361.343 31.4682 361.777 30.8974 362.549 30.8974ZM365.605 33.4243C365.605 32.6137 366.209 32.1464 367.279 32.08L368.498 32.0097V31.6211C368.498 31.1455 368.184 30.8769 367.577 30.8769C367.081 30.8769 366.738 31.059 366.639 31.3774H365.779C365.87 30.604 366.597 30.1079 367.618 30.1079C368.746 30.1079 369.383 30.6699 369.383 31.6211V34.6977H368.528V34.0649H368.457C368.315 34.2919 368.114 34.4769 367.877 34.6011C367.639 34.7254 367.373 34.7843 367.105 34.7719C366.917 34.7916 366.726 34.7714 366.545 34.7127C366.364 34.654 366.198 34.5581 366.057 34.4311C365.915 34.3041 365.802 34.1489 365.724 33.9755C365.647 33.8021 365.606 33.6143 365.605 33.4243ZM368.498 33.0395V32.663L367.399 32.7334C366.779 32.7748 366.498 32.9858 366.498 33.3828C366.498 33.788 366.85 34.0239 367.333 34.0239C367.475 34.0382 367.618 34.0239 367.753 33.9818C367.889 33.9397 368.015 33.8707 368.124 33.7789C368.233 33.687 368.322 33.5742 368.386 33.4472C368.451 33.3202 368.489 33.1815 368.498 33.0395ZM372.418 30.1201C371.281 30.1201 370.55 31.0215 370.55 32.4443C370.55 33.8706 371.273 34.772 372.418 34.7719C372.703 34.7824 372.985 34.7148 373.234 34.5763C373.483 34.4378 373.69 34.2338 373.831 33.9863H373.902V34.6977H374.753V28.437H373.865V30.9101H373.798C373.667 30.6609 373.467 30.4543 373.223 30.3144C372.978 30.1745 372.699 30.1071 372.418 30.1201ZM372.67 33.9741C371.917 33.9741 371.467 33.3994 371.467 32.4443C371.467 31.497 371.922 30.9184 372.67 30.9184C373.414 30.9184 373.881 31.5097 373.881 32.4482C373.881 33.3911 373.419 33.9741 372.67 33.9741ZM378.428 32.4443C378.399 32.1484 378.433 31.8498 378.527 31.5678C378.621 31.2857 378.772 31.0263 378.972 30.8064C379.172 30.5864 379.416 30.4106 379.687 30.2903C379.959 30.1701 380.253 30.1079 380.55 30.1079C380.847 30.1079 381.141 30.1701 381.413 30.2903C381.684 30.4106 381.928 30.5864 382.128 30.8064C382.328 31.0263 382.479 31.2857 382.573 31.5678C382.667 31.8498 382.701 32.1484 382.672 32.4443C382.701 32.7405 382.668 33.0395 382.574 33.322C382.481 33.6046 382.329 33.8644 382.129 34.0848C381.929 34.3052 381.686 34.4813 381.414 34.6019C381.142 34.7224 380.847 34.7847 380.55 34.7847C380.252 34.7847 379.958 34.7224 379.686 34.6019C379.414 34.4813 379.171 34.3052 378.971 34.0848C378.771 33.8644 378.619 33.6046 378.526 33.322C378.432 33.0395 378.399 32.7405 378.428 32.4443ZM381.759 32.4443C381.759 31.4682 381.32 30.8974 380.551 30.8974C379.779 30.8974 379.345 31.4682 379.345 32.4443C379.345 33.4282 379.779 33.9946 380.551 33.9946C381.321 33.9946 381.759 33.4243 381.759 32.4443ZM384.719 30.1948H383.864V34.6977H384.752V32.0634C384.737 31.9153 384.753 31.7656 384.8 31.6245C384.848 31.4833 384.925 31.3542 385.027 31.2458C385.13 31.1374 385.254 31.0524 385.392 30.9965C385.53 30.9407 385.678 30.9154 385.827 30.9223C386.484 30.9223 386.798 31.2822 386.798 32.0058V34.6976H387.686V31.7826C387.718 31.5653 387.701 31.3435 387.636 31.1337C387.571 30.9239 387.459 30.7314 387.31 30.5706C387.16 30.4097 386.976 30.2846 386.772 30.2045C386.567 30.1244 386.347 30.0914 386.129 30.1079C385.849 30.0851 385.569 30.1502 385.329 30.294C385.088 30.4378 384.898 30.6532 384.785 30.9101H384.719V30.1948ZM392.705 29.0737V30.2153H393.68V30.9638H392.705V33.2793C392.705 33.7509 392.899 33.9575 393.341 33.9575C393.455 33.9571 393.568 33.9503 393.68 33.937V34.6772C393.521 34.7057 393.359 34.7209 393.197 34.7226C392.209 34.7226 391.816 34.3749 391.816 33.5068V30.9638H391.101V30.2153H391.816V29.0737H392.705ZM395.774 28.437H394.893L394.893 34.6977H395.782V32.0678C395.768 31.9152 395.788 31.7614 395.84 31.6173C395.892 31.4731 395.975 31.3421 396.083 31.2334C396.191 31.1246 396.321 31.0408 396.465 30.9878C396.609 30.9347 396.762 30.9137 396.915 30.9262C397.542 30.9262 397.877 31.2905 397.877 32.0097V34.6977H398.766V31.7905C398.795 31.5742 398.776 31.3541 398.71 31.1459C398.645 30.9378 398.534 30.7467 398.386 30.5864C398.238 30.4261 398.056 30.3004 397.854 30.2184C397.652 30.1363 397.434 30.0999 397.216 30.1118C396.932 30.0887 396.648 30.1538 396.403 30.2982C396.157 30.4425 395.962 30.6591 395.844 30.9184H395.774V28.437ZM403.945 33.4819C403.824 33.8934 403.563 34.2494 403.206 34.4876C402.85 34.7257 402.421 34.8309 401.995 34.7846C401.698 34.7925 401.404 34.7356 401.131 34.6181C400.859 34.5006 400.616 34.3252 400.418 34.104C400.22 33.8829 400.073 33.6213 399.986 33.3375C399.899 33.0537 399.875 32.7544 399.916 32.4604C399.877 32.1655 399.901 31.8656 399.987 31.5809C400.074 31.2963 400.22 31.0335 400.417 30.8104C400.614 30.5874 400.856 30.4092 401.128 30.288C401.399 30.1668 401.694 30.1054 401.991 30.1079C403.243 30.1079 403.999 30.9639 403.999 32.3779V32.688H400.821V32.7378C400.807 32.903 400.828 33.0693 400.882 33.2261C400.936 33.3828 401.022 33.5266 401.135 33.648C401.248 33.7695 401.385 33.866 401.537 33.9314C401.689 33.9968 401.854 34.0296 402.019 34.0278C402.232 34.0533 402.447 34.015 402.638 33.9178C402.828 33.8206 402.986 33.6689 403.09 33.4819L403.945 33.4819ZM400.821 32.0307H403.094C403.105 31.8796 403.085 31.7278 403.034 31.5851C402.983 31.4424 402.903 31.3119 402.798 31.202C402.694 31.0922 402.568 31.0054 402.428 30.9472C402.288 30.889 402.138 30.8608 401.986 30.8642C401.833 30.8623 401.68 30.8912 401.538 30.9491C401.396 31.0071 401.266 31.0929 401.158 31.2016C401.049 31.3103 400.963 31.4397 400.905 31.5821C400.848 31.7245 400.819 31.877 400.821 32.0307ZM321.265 32.2109C322.077 31.2367 322.476 29.9845 322.379 28.7202C321.14 28.8505 319.996 29.443 319.174 30.3799C318.772 30.8375 318.464 31.37 318.268 31.9467C318.071 32.5235 317.991 33.1333 318.03 33.7412C318.65 33.7476 319.263 33.6132 319.824 33.3481C320.384 33.083 320.877 32.6942 321.265 32.2109ZM323.996 40.3006C324.006 39.466 324.228 38.6476 324.64 37.9216C325.052 37.1957 325.64 36.5858 326.351 36.1486C325.899 35.5034 325.304 34.9725 324.611 34.5979C323.919 34.2234 323.149 34.0155 322.362 33.9909C321.335 33.8831 320.328 34.2831 319.504 34.6101C318.982 34.8176 318.533 34.9957 318.201 34.9957C317.823 34.9957 317.362 34.8103 316.845 34.6026L316.845 34.6026C316.169 34.3309 315.398 34.0211 314.595 34.0376C313.677 34.0672 312.784 34.3341 312 34.8122C311.217 35.2902 310.57 35.9632 310.124 36.7655C308.191 40.1139 309.633 45.0349 311.485 47.7415C312.411 49.0669 313.494 50.5473 314.91 50.4948C315.553 50.4681 316.009 50.2761 316.48 50.0778C317.025 49.8483 317.59 49.6103 318.488 49.6103C319.334 49.6103 319.875 49.8409 320.394 50.0621C320.892 50.2742 321.369 50.4778 322.077 50.4614C323.565 50.4373 324.502 49.1302 325.396 47.7923C326.061 46.8479 326.573 45.8042 326.913 44.6998C326.049 44.3341 325.312 43.7219 324.793 42.9396C324.274 42.1573 323.997 41.2395 323.996 40.3006Z" fill="white"/>
<g clip-path="url(#clip0_2_220)">
<path d="M599.033 20H473.847C471.082 20 468.84 22.2386 468.84 25V55C468.84 57.7614 471.082 60 473.847 60H599.033C601.798 60 604.04 57.7614 604.04 55V25C604.04 22.2386 601.798 20 599.033 20Z" fill="black"/>
<path d="M599.033 20.8C601.356 20.8 603.239 22.68 603.239 25V55C603.239 57.32 601.356 59.2 599.033 59.2H473.847C471.524 59.2 469.641 57.32 469.641 55V25C469.641 22.68 471.524 20.8 473.847 20.8H599.033ZM599.033 20H473.847C471.093 20 468.84 22.25 468.84 25V55C468.84 57.75 471.093 60 473.847 60H599.033C601.787 60 604.04 57.75 604.04 55V25C604.04 22.25 601.787 20 599.033 20Z" fill="#A6A6A6"/>
<path fill-rule="evenodd" clip-rule="evenodd" d="M537.552 33.09C538.994 33.09 540.176 32.06 540.176 30.12C540.176 28.44 539.144 27.26 537.632 27.26C536.12 27.26 535.008 28.44 535.008 30.23C535.008 31.93 536.11 33.09 537.552 33.09ZM537.592 32.5C536.44 32.5 535.789 31.42 535.789 30.21V30.2C535.789 28.96 536.39 27.85 537.602 27.85C538.814 27.85 539.404 29.03 539.404 30.15C539.404 31.44 538.743 32.5 537.592 32.5ZM513.156 33.06C513.917 33.06 514.558 32.87 514.888 32.75V32.74V30.03H513.025V30.62H514.177V32.3C514.007 32.38 513.686 32.45 513.206 32.45C511.884 32.45 511.022 31.59 511.022 30.17C511.022 28.75 511.924 27.9 513.296 27.9C513.867 27.9 514.247 28.01 514.548 28.14L514.728 27.55C514.478 27.43 513.967 27.29 513.316 27.29C511.413 27.29 510.251 28.53 510.251 30.21C510.251 31.09 510.552 31.84 511.042 32.31C511.593 32.84 512.304 33.06 513.156 33.06ZM516.891 30.35H519.094L519.104 30.34V29.74H516.901V27.96H519.225V27.35H516.17V33H519.345V32.39H516.891V30.35ZM521.668 27.97H519.956V27.35H524.142V27.97H522.409V33H521.668V27.97ZM527.617 33V27.35H526.886V33H527.617ZM530.121 27.97H528.408V27.35H532.594V27.97H530.862V33H530.121V27.97ZM541.297 33V27.35H542.098L543.911 30.21C544.332 30.87 544.662 31.47 544.923 32.04H544.943C544.872 31.28 544.862 30.59 544.862 29.71V27.35H545.553V33H544.812L543.02 30.13C542.629 29.5 542.249 28.86 541.958 28.25H541.928C541.968 28.97 541.988 29.65 541.988 30.59V33H541.297ZM532.805 46C532.805 43.54 534.727 41.75 537.081 41.75C539.434 41.75 541.357 43.55 541.357 46C541.357 48.45 539.434 50.25 537.081 50.25C534.727 50.25 532.805 48.46 532.805 46ZM534.677 46C534.677 47.52 535.789 48.58 537.081 48.58C538.373 48.58 539.484 47.53 539.484 46C539.484 44.47 538.373 43.42 537.081 43.42C535.789 43.42 534.677 44.48 534.677 46ZM523.481 46C523.481 43.54 525.404 41.75 527.757 41.75C530.111 41.75 532.033 43.55 532.033 46C532.033 48.45 530.111 50.25 527.757 50.25C525.404 50.25 523.481 48.46 523.481 46ZM525.354 46C525.354 47.52 526.465 48.58 527.757 48.58C529.049 48.58 530.161 47.53 530.161 46C530.161 44.47 529.049 43.42 527.757 43.42C526.465 43.42 525.354 44.48 525.354 46ZM516.661 44.85V43.06H522.74C522.81 43.38 522.84 43.77 522.84 44.19C522.84 45.54 522.469 47.22 521.278 48.41C520.116 49.62 518.634 50.26 516.661 50.26C513.015 50.26 509.951 47.3 509.951 43.65C509.951 40 513.015 37.04 516.661 37.04C518.684 37.04 520.116 37.83 521.197 38.86L519.926 40.13C519.154 39.4 518.103 38.84 516.671 38.84C514.007 38.84 511.924 40.98 511.924 43.64C511.924 46.3 514.007 48.44 516.671 48.44C518.393 48.44 519.375 47.75 520.006 47.12C520.516 46.61 520.857 45.86 520.987 44.85H516.661ZM558.392 41.74C560.606 41.74 561.687 43.5 562.038 44.45H562.048L562.238 44.93L556.54 47.28C556.97 48.14 557.651 48.57 558.603 48.57C559.554 48.57 560.215 48.1 560.696 47.39L562.148 48.36C561.687 49.05 560.556 50.24 558.603 50.24C556.179 50.24 554.377 48.37 554.377 45.99C554.377 43.46 556.179 41.74 558.392 41.74ZM558.453 43.39C557.501 43.39 556.179 44.23 556.229 45.87L560.035 44.29C559.825 43.76 559.194 43.39 558.453 43.39ZM553.475 49.99H551.602V37.49H553.475V49.99ZM548.478 42.69H548.538V42H550.311V49.64C550.311 52.78 548.458 54.07 546.265 54.07C544.201 54.07 542.96 52.69 542.489 51.56L544.121 50.88C544.412 51.57 545.123 52.39 546.265 52.39C547.667 52.39 548.538 51.52 548.538 49.89V49.28H548.478C548.057 49.8 547.246 50.25 546.234 50.25C544.101 50.25 542.148 48.41 542.148 46.01C542.148 43.61 544.101 41.74 546.234 41.74C547.256 41.74 548.057 42.19 548.478 42.69ZM544.021 46.01C544.021 47.49 545.103 48.57 546.395 48.57C547.667 48.57 548.668 47.5 548.668 46.01C548.668 44.52 547.687 43.42 546.395 43.42C545.103 43.42 544.021 44.53 544.021 46.01ZM566.334 37.49H570.811H570.821C572.894 37.49 574.927 38.99 574.927 41.37C574.927 43.75 572.894 45.25 570.821 45.25H568.207V49.99H566.334V37.49ZM568.207 43.52H570.861V43.51C572.263 43.51 573.054 42.35 573.054 41.37C573.054 40.39 572.263 39.23 570.861 39.23H568.207V43.52ZM579.073 43.63C579.654 42.32 581.056 41.72 582.408 41.72L582.388 41.71C584.531 41.71 586.194 42.95 586.194 45.17V49.96H584.391V49H584.331C583.9 49.66 583.199 50.22 581.947 50.22C580.305 50.22 578.843 49.14 578.843 47.47C578.843 45.64 580.655 44.66 582.448 44.66C583.339 44.66 584.06 44.95 584.401 45.14V45.01C584.391 43.98 583.399 43.4 582.438 43.4C581.747 43.4 581.086 43.63 580.736 44.32L579.073 43.63ZM580.715 47.51C580.715 48.26 581.567 48.57 582.178 48.57V48.58C583.259 48.58 584.261 47.76 584.401 46.6C583.91 46.36 583.52 46.18 582.698 46.18C581.777 46.18 580.715 46.55 580.715 47.51ZM590.63 47.41L592.773 41.99H592.783H594.856L589.719 53.78H587.766L589.669 49.57L586.334 41.99H588.347L590.57 47.41H590.63ZM577.811 49.99H575.938V37.49H577.811V49.99Z" fill="white"/>
<g clip-path="url(#clip1_2_220)">
<path d="M489.591 39.42L478.925 50.72C479.255 51.95 480.377 52.85 481.709 52.85C482.24 52.85 482.741 52.71 483.171 52.45L483.201 52.43L495.199 45.52L489.581 39.41L489.591 39.42Z" fill="#EA4335"/>
<path d="M500.377 37.5H500.367L495.189 34.49L489.35 39.68L495.209 45.53L500.367 42.56C501.268 42.07 501.879 41.12 501.879 40.03C501.879 38.94 501.278 37.99 500.377 37.51V37.5Z" fill="#FBBC04"/>
<path d="M478.925 29.28C478.865 29.52 478.825 29.76 478.825 30.02V49.98C478.825 50.24 478.855 50.48 478.925 50.72L489.951 39.71L478.925 29.28Z" fill="#4285F4"/>
<path d="M489.671 40L495.189 34.49L483.201 27.55C482.771 27.29 482.26 27.14 481.709 27.14C480.377 27.14 479.255 28.05 478.925 29.27L489.671 39.99V40Z" fill="#34A853"/>
</g>
</g>
<defs>
<clipPath id="clip0_2_220">
<rect width="135.2" height="40" fill="white" transform="translate(468.84 20)"/>
</clipPath>
<clipPath id="clip1_2_220">
<rect width="23.0541" height="25.71" fill="white" transform="translate(478.825 27.14)"/>
</clipPath>
</defs>
</svg>
